<?xml version="1.0" standalone="no"?>
<!DOCTYPE svg PUBLIC "-//W3C//DTD SVG 20010904//EN"
 "http://www.w3.org/TR/2001/REC-SVG-20010904/DTD/svg10.dtd">
<svg version="1.0" xmlns="http://www.w3.org/2000/svg"
 width="683.000000pt" height="683.000000pt" viewBox="0 0 683.000000 683.000000"
 preserveAspectRatio="xMidYMid meet">
<metadata>
Created by potrace 1.14, written by Peter Selinger 2001-2017
</metadata>
<g transform="translate(0.000000,683.000000) scale(0.100000,-0.100000)"
fill="#000000" stroke="none">
<path d="M3209 6826 c-2 -2 -40 -7 -84 -10 -44 -3 -96 -8 -115 -11 -19 -2 -53
-6 -75 -9 -44 -6 -65 -9 -175 -31 -41 -8 -86 -16 -100 -19 -14 -3 -52 -12 -85
-21 -33 -9 -67 -18 -75 -20 -88 -21 -411 -135 -435 -155 -5 -4 -21 -11 -35
-15 -27 -8 -191 -89 -250 -122 -19 -11 -62 -35 -95 -54 -33 -18 -64 -37 -70
-41 -5 -4 -55 -38 -110 -74 -83 -55 -257 -184 -275 -204 -3 -3 -41 -36 -84
-75 -81 -71 -206 -194 -261 -256 -61 -69 -101 -116 -130 -153 -16 -21 -34 -44
-40 -50 -24 -26 -96 -128 -157 -221 -273 -417 -458 -908 -523 -1390 -3 -22 -7
-53 -10 -70 -14 -92 -20 -213 -20 -400 0 -190 10 -397 19 -414 2 -3 7 -35 10
-71 4 -36 9 -74 11 -85 3 -11 7 -31 9 -45 11 -58 27 -136 36 -169 5 -20 11
-47 13 -61 11 -60 92 -306 144 -435 53 -134 132 -298 207 -432 36 -65 199
-314 219 -336 7 -7 28 -33 47 -58 319 -418 768 -775 1260 -1002 92 -42 144
-64 170 -72 14 -4 30 -11 35 -15 6 -3 44 -18 85 -32 302 -103 552 -158 850
-185 160 -15 679 -6 710 12 3 1 32 6 65 10 63 7 235 39 295 55 19 5 49 11 65
14 73 13 363 111 500 169 85 36 299 145 379 192 98 58 210 128 216 135 3 3 39
30 80 59 182 131 412 340 541 492 24 29 49 57 54 63 6 6 32 38 58 71 26 33 55
70 65 81 9 12 24 32 32 44 8 12 20 28 25 34 6 6 46 67 88 136 43 69 82 132 87
140 28 45 143 278 178 360 100 238 196 561 219 740 2 19 6 41 9 49 3 8 7 40
10 70 3 31 7 62 10 70 25 76 25 684 0 818 -2 10 -7 43 -11 73 -6 46 -18 113
-60 320 -11 52 -73 260 -95 315 -4 11 -18 49 -31 85 -34 96 -112 269 -181 400
-223 425 -592 856 -959 1123 -363 263 -693 429 -1084 546 -123 36 -180 50
-335 80 -114 22 -144 26 -235 37 -33 3 -69 8 -80 11 -23 5 -521 13 -526 9z"/>
</g>
</svg>
